<svg width="32" height="32" viewBox="0 0 32 32" fill="none" xmlns="http://www.w3.org/2000/svg">
  <!-- Sparkle/Star -->
  <path d="M10 6L11.2 9.2L14.4 10.4L11.2 11.6L10 14.8L8.8 11.6L5.6 10.4L8.8 9.2L10 6Z" fill="currentColor"/>
  <!-- Paint Brush Head (curved, leaf-like) -->
  <path d="M6 18C6 18 7.5 19.5 9.5 21.5C11.5 23.5 13.5 25.5 15.5 27.5C16 28 16.5 28 17 27.5C17.5 27 17.5 26.5 17 26C15 24 13 22 11 20C9 18 7 16 6 18Z" fill="currentColor"/>
  <!-- Brush Handle (rectangular) -->
  <rect x="16" y="20" width="8" height="2.5" rx="0.5" fill="currentColor"/>
</svg>
